{
  "accessors": [
    {
      "bufferView": 2,
      "componentType": 5126,
      "count": 210,
      "max": [
        -1.4130820035934448,
        0.37105900049209595,
        1.3634059429168701
      ],
      "min": [
        -5.146749019622803,
        -0.41204899549484253,
        0.5791100263595581
      ],
      "type": "VEC3"
    },
    {
      "bufferView": 2,
      "byteOffset": 2520,
      "componentType": 5126,
      "count": 210,
      "max": [
        1.0,
        1.0,
        1.0
      ],
      "min": [
        -1.0,
        -1.0,
        -1.0
      ],
      "type": "VEC3"
    },
    {
      "bufferView": 1,
      "componentType": 5126,
      "count": 210,
      "max": [
        0.65625,
        1.0
      ],
      "min": [
        0.34375,
        -0.0
      ],
      "type": "VEC2"
    },
    {
      "bufferView": 0,
      "componentType": 5125,
      "count": 960,
      "type": "SCALAR"
    },
    {
      "bufferView": 2,
      "byteOffset": 5040,
      "componentType": 5126,
      "count": 555,
      "max": [
        -0.47365498542785645,
        0.5186570286750793,
        1.4267100095748901
      ],
      "min": [
        -1.516800045967102,
        -0.5541030168533325,
        0.5282930135726929
      ],
      "type": "VEC3"
    },
    {
      "bufferView": 2,
      "byteOffset": 11700,
      "componentType": 5126,
      "count": 555,
      "max": [
        1.0,
        1.0,
        1.0
      ],
      "min": [
        -1.0,
        -1.0,
        -1.0
      ],
      "type": "VEC3"
    },
    {
      "bufferView": 1,
      "byteOffset": 1680,
      "componentType": 5126,
      "count": 555,
      "max": [
        0.9636110067367554,
        1.0
      ],
      "min": [
        0.036389000713825226,
        0.0
      ],
      "type": "VEC2"
    },
    {
      "bufferView": 0,
      "byteOffset": 3840,
      "componentType": 5125,
      "count": 2784,
      "type": "SCALAR"
    },
    {
      "bufferView": 2,
      "byteOffset": 18360,
      "componentType": 5126,
      "count": 834,
      "max": [
        -4.891829967498779,
        0.5094900131225586,
        1.5014699697494507
      ],
      "min": [
        -6.185009956359863,
        -0.49661800265312195,
        0.49536600708961487
      ],
      "type": "VEC3"
    },
    {
      "bufferView": 2,
      "byteOffset": 28368,
      "componentType": 5126,
      "count": 834,
      "max": [
        0.9783539772033691,
        0.9999278783798218,
        0.9999286532402039
      ],
      "min": [
        -1.0,
        -0.9999279975891113,
        -0.9999279975891113
      ],
      "type": "VEC3"
    },
    {
      "bufferView": 1,
      "byteOffset": 6120,
      "componentType": 5126,
      "count": 834,
      "max": [
        1.0,
        1.0
      ],
      "min": [
        0.0,
        0.0
      ],
      "type": "VEC2"
    },
    {
      "bufferView": 0,
      "byteOffset": 14976,
      "componentType": 5125,
      "count": 3600,
      "type": "SCALAR"
    },
    {
      "bufferView": 2,
      "byteOffset": 38376,
      "componentType": 5126,
      "count": 651,
      "max": [
        -5.720419883728027,
        0.018053000792860985,
        1.0153000354766846
      ],
      "min": [
        -8.900150299072266,
        -0.008113999851047993,
        0.9826120138168335
      ],
      "type": "VEC3"
    },
    {
      "bufferView": 2,
      "byteOffset": 46188,
      "componentType": 5126,
      "count": 651,
      "max": [
        1.0,
        1.0,
        0.9999998807907104
      ],
      "min": [
        -0.9347377419471741,
        -1.0,
        -0.9999985098838806
      ],
      "type": "VEC3"
    },
    {
      "bufferView": 1,
      "byteOffset": 12792,
      "componentType": 5126,
      "count": 651,
      "max": [
        0.65625,
        1.0
      ],
      "min": [
        0.34375,
        0.0
      ],
      "type": "VEC2"
    },
    {
      "bufferView": 0,
      "byteOffset": 29376,
      "componentType": 5125,
      "count": 3648,
      "type": "SCALAR"
    },
    {
      "bufferView": 2,
      "byteOffset": 54000,
      "componentType": 5126,
      "count": 1469,
      "max": [
        2.5021400451660156,
        1.4723700284957886,
        1.7043100595474243
      ],
      "min": [
        -5.326839923858643,
        -1.4723700284957886,
        0.23820100724697113
      ],
      "type": "VEC3"
    },
    {
      "bufferView": 2,
      "byteOffset": 71628,
      "componentType": 5126,
      "count": 1469,
      "max": [
        0.9999998211860657,
        1.0,
        1.0
      ],
      "min": [
        -0.9999446272850037,
        -1.0,
        -1.0
      ],
      "type": "VEC3"
    },
    {
      "bufferView": 1,
      "byteOffset": 18000,
      "componentType": 5126,
      "count": 1469,
      "max": [
        1.0,
        1.0
      ],
      "min": [
        0.0,
        0.0
      ],
      "type": "VEC2"
    },
    {
      "bufferView": 0,
      "byteOffset": 43968,
      "componentType": 5125,
      "count": 5304,
      "type": "SCALAR"
    },
    {
      "bufferView": 2,
      "byteOffset": 89256,
      "componentType": 5126,
      "count": 10337,
      "max": [
        0.14983400702476501,
        6.917995929718018,
        1.3816909790039063
      ],
      "min": [
        -8.623231887817383,
        0.045958999544382095,
        -0.6025440096855164
      ],
      "type": "VEC3"
    },
    {
      "bufferView": 2,
      "byteOffset": 213300,
      "componentType": 5126,
      "count": 10337,
      "max": [
        0.9999760985374451,
        0.9999850988388062,
        0.9999163746833801
      ],
      "min": [
        -0.9972466230392456,
        -0.9999462366104126,
        -0.9999856352806091
      ],
      "type": "VEC3"
    },
    {
      "bufferView": 1,
      "byteOffset": 29752,
      "componentType": 5126,
      "count": 10337,
      "max": [
        1.0,
        1.0
      ],
      "min": [
        0.0,
        0.0
      ],
      "type": "VEC2"
    },
    {
      "bufferView": 0,
      "byteOffset": 65184,
      "componentType": 5125,
      "count": 59712,
      "type": "SCALAR"
    },
    {
      "bufferView": 2,
      "byteOffset": 337344,
      "componentType": 5126,
      "count": 10337,
      "max": [
        -0.902679979801178,
        7.276176929473877,
        0.6034700274467468
      ],
      "min": [
        -8.380194664001465,
        1.8071479797363281,
        -0.891294002532959
      ],
      "type": "VEC3"
    },
    {
      "bufferView": 2,
      "byteOffset": 461388,
      "componentType": 5126,
      "count": 10337,
      "max": [
        0.999526858329773,
        0.9999995231628418,
        0.9999629855155945
      ],
      "min": [
        -0.9991136193275452,
        -0.9998334646224976,
        -0.9999855160713196
      ],
      "type": "VEC3"
    },
    {
      "bufferView": 1,
      "byteOffset": 112448,
      "componentType": 5126,
      "count": 10337,
      "max": [
        1.0,
        1.0
      ],
      "min": [
        0.0,
        0.0
      ],
      "type": "VEC2"
    },
    {
      "bufferView": 0,
      "byteOffset": 304032,
      "componentType": 5125,
      "count": 59712,
      "type": "SCALAR"
    },
    {
      "bufferView": 2,
      "byteOffset": 585432,
      "componentType": 5126,
      "count": 1063,
      "max": [
        5.808460235595703,
        0.4926910102367401,
        1.4049700498580933
      ],
      "min": [
        -0.4846769869327545,
        -0.5281370282173157,
        0.5500400066375732
      ],
      "type": "VEC3"
    },
    {
      "bufferView": 2,
      "byteOffset": 598188,
      "componentType": 5126,
      "count": 1063,
      "max": [
        1.0,
        1.0,
        1.0
      ],
      "min": [
        -1.0,
        -1.0,
        -1.0
      ],
      "type": "VEC3"
    },
    {
      "bufferView": 1,
      "byteOffset": 195144,
      "componentType": 5126,
      "count": 1063,
      "max": [
        0.65625,
        1.0
      ],
      "min": [
        0.34375,
        0.0
      ],
      "type": "VEC2"
    },
    {
      "bufferView": 0,
      "byteOffset": 542880,
      "componentType": 5125,
      "count": 5232,
      "type": "SCALAR"
    },
    {
      "bufferView": 2,
      "byteOffset": 610944,
      "componentType": 5126,
      "count": 1929,
      "max": [
        -0.45521700382232666,
        0.4711349904537201,
        1.616320013999939
      ],
      "min": [
        -4.420820236206055,
        -0.6306350231170654,
        0.9199309945106506
      ],
      "type": "VEC3"
    },
    {
      "bufferView": 2,
      "byteOffset": 634092,
      "componentType": 5126,
      "count": 1929,
      "max": [
        1.0,
        0.9973435401916504,
        0.9995278716087341
      ],
      "min": [
        -1.0,
        -0.9899979829788208,
        -0.8100529909133911
      ],
      "type": "VEC3"
    },
    {
      "bufferView": 1,
      "byteOffset": 203648,
      "componentType": 5126,
      "count": 1929,
      "max": [
        1.0,
        1.0
      ],
      "min": [
        0.0,
        0.0
      ],
      "type": "VEC2"
    },
    {
      "bufferView": 0,
      "byteOffset": 563808,
      "componentType": 5125,
      "count": 5472,
      "type": "SCALAR"
    },
    {
      "bufferView": 2,
      "byteOffset": 657240,
      "componentType": 5126,
      "count": 7620,
      "max": [
        -8.766914367675781,
        0.7107290029525757,
        1.0076340436935425
      ],
      "min": [
        -10.12946891784668,
        -0.3107909858226776,
        -0.03404099866747856
      ],
      "type": "VEC3"
    },
    {
      "bufferView": 2,
      "byteOffset": 748680,
      "componentType": 5126,
      "count": 7620,
      "max": [
        0.9999863505363464,
        0.9999876618385315,
        1.0
      ],
      "min": [
        -0.9999867677688599,
        -0.9999873638153076,
        -1.0
      ],
      "type": "VEC3"
    },
    {
      "bufferView": 1,
      "byteOffset": 219080,
      "componentType": 5126,
      "count": 7620,
      "max": [
        1.0,
        1.0
      ],
      "min": [
        0.0,
        0.0
      ],
      "type": "VEC2"
    },
    {
      "bufferView": 0,
      "byteOffset": 585696,
      "componentType": 5125,
      "count": 40320,
      "type": "SCALAR"
    }
  ],
  "asset": {
    "extras": {
      "author": "EMJ (https://sketchfab.com/esmuji)",
      "license": "CC-BY-4.0 (http://creativecommons.org/licenses/by/4.0/)",
      "source": "https://sketchfab.com/3d-models/crime-scene-753b02b4ae644ec9ae63ef1f9db4d233",
      "title": "Crime scene"
    },
    "generator": "Sketchfab-12.65.0",
    "version": "2.0"
  },
  "bufferViews": [
    {
      "buffer": 0,
      "byteLength": 746976,
      "name": "floatBufferViews",
      "target": 34963
    },
    {
      "buffer": 0,
      "byteLength": 280040,
      "byteOffset": 746976,
      "byteStride": 8,
      "name": "floatBufferViews",
      "target": 34962
    },
    {
      "buffer": 0,
      "byteLength": 840120,
      "byteOffset": 1027016,
      "byteStride": 12,
      "name": "floatBufferViews",
      "target": 34962
    }
  ],
  "buffers": [
    {
      "byteLength": 1867136,
      "uri": "scene.bin"
    }
  ],
  "extensionsRequired": [
    "KHR_materials_pbrSpecularGlossiness"
  ],
  "extensionsUsed": [
    "KHR_materials_pbrSpecularGlossiness"
  ],
  "materials": [
    {
      "doubleSided": true,
      "extensions": {
        "KHR_materials_pbrSpecularGlossiness": {
          "diffuseFactor": [
            0.14042425671694012,
            0.005472902881192663,
            0.005472902881192663,
            1.0
          ],
          "glossinessFactor": 0.8695876568983073,
          "specularFactor": [
            0.05,
            0.05,
            0.05
          ]
        }
      },
      "name": "initialShadingGroup"
    },
    {
      "doubleSided": true,
      "extensions": {
        "KHR_materials_pbrSpecularGlossiness": {
          "diffuseFactor": [
            0.0,
            0.0,
            0.0,
            1.0
          ],
          "glossinessFactor": 0.4872179357247357,
          "specularFactor": [
            0.06843205062987161,
            0.06843205062987161,
            0.06843205062987161
          ]
        }
      },
      "name": "lambert14SG"
    },
    {
      "doubleSided": true,
      "extensions": {
        "KHR_materials_pbrSpecularGlossiness": {
          "diffuseFactor": [
            0.0,
            0.0,
            0.0,
            1.0
          ],
          "glossinessFactor": 0.0,
          "specularFactor": [
            0.05,
            0.05,
            0.05
          ]
        }
      },
      "name": "lambert16SG"
    },
    {
      "doubleSided": true,
      "extensions": {
        "KHR_materials_pbrSpecularGlossiness": {
          "diffuseFactor": [
            0.5843277061815157,
            0.5843277061815157,
            0.5843277061815157,
            1.0
          ],
          "glossinessFactor": 0.5843277061815157,
          "specularFactor": [
            0.05,
            0.05,
            0.05
          ]
        }
      },
      "name": "lambert17SG"
    },
    {
      "doubleSided": true,
      "extensions": {
        "KHR_materials_pbrSpecularGlossiness": {
          "diffuseFactor": [
            0.0,
            0.0,
            0.0,
            1.0
          ],
          "glossinessFactor": 0.6996455585989422,
          "specularFactor": [
            0.09270949324406663,
            0.09270949324406663,
            0.09270949324406663
          ]
        }
      },
      "name": "lambert18SG"
    },
    {
      "doubleSided": true,
      "extensions": {
        "KHR_materials_pbrSpecularGlossiness": {
          "diffuseFactor": [
            0.006146745094492598,
            0.22742956849622606,
            0.024586980377970392,
            1.0
          ],
          "glossinessFactor": 0.802824689709271,
          "specularFactor": [
            0.05,
            0.05,
            0.05
          ]
        }
      },
      "name": "lambert19SG"
    },
    {
      "doubleSided": true,
      "extensions": {
        "KHR_materials_pbrSpecularGlossiness": {
          "diffuseFactor": [
            0.12457812943631502,
            0.11745004070698682,
            0.11745004070698682,
            1.0
          ],
          "glossinessFactor": 1.0,
          "specularFactor": [
            0.232304788275688,
            0.232304788275688,
            0.232304788275688
          ]
        }
      },
      "name": "lambert20SG"
    },
    {
      "alphaMode": "BLEND",
      "doubleSided": true,
      "extensions": {
        "KHR_materials_pbrSpecularGlossiness": {
          "diffuseFactor": [
            0.28692903415762677,
            0.011158627513162345,
            0.0,
            0.10484821455116414
          ],
          "glossinessFactor": 0.49935665703183324,
          "specularFactor": [
            0.05,
            0.05,
            0.05
          ]
        }
      },
      "name": "lambert21SG"
    },
    {
      "alphaMode": "BLEND",
      "doubleSided": true,
      "extensions": {
        "KHR_materials_pbrSpecularGlossiness": {
          "diffuseFactor": [
            0.3206172625852321,
            0.3206172625852321,
            0.3206172625852321,
            0.11091757520471289
          ],
          "glossinessFactor": 1.0,
          "specularFactor": [
            0.05,
            0.05,
            0.05
          ]
        }
      },
      "name": "lambert23SG"
    }
  ],
  "meshes": [
    {
      "name": "Object_0",
      "primitives": [
        {
          "attributes": {
            "NORMAL": 1,
            "POSITION": 0,
            "TEXCOORD_0": 2
          },
          "indices": 3,
          "material": 0,
          "mode": 4
        }
      ]
    },
    {
      "name": "Object_1",
      "primitives": [
        {
          "attributes": {
            "NORMAL": 5,
            "POSITION": 4,
            "TEXCOORD_0": 6
          },
          "indices": 7,
          "material": 2,
          "mode": 4
        }
      ]
    },
    {
      "name": "Object_2",
      "primitives": [
        {
          "attributes": {
            "NORMAL": 9,
            "POSITION": 8,
            "TEXCOORD_0": 10
          },
          "indices": 11,
          "material": 5,
          "mode": 4
        }
      ]
    },
    {
      "name": "Object_3",
      "primitives": [
        {
          "attributes": {
            "NORMAL": 13,
            "POSITION": 12,
            "TEXCOORD_0": 14
          },
          "indices": 15,
          "material": 6,
          "mode": 4
        }
      ]
    },
    {
      "name": "Object_4",
      "primitives": [
        {
          "attributes": {
            "NORMAL": 17,
            "POSITION": 16,
            "TEXCOORD_0": 18
          },
          "indices": 19,
          "material": 8,
          "mode": 4
        }
      ]
    },
    {
      "name": "Object_5",
      "primitives": [
        {
          "attributes": {
            "NORMAL": 21,
            "POSITION": 20,
            "TEXCOORD_0": 22
          },
          "indices": 23,
          "material": 1,
          "mode": 4
        }
      ]
    },
    {
      "name": "Object_6",
      "primitives": [
        {
          "attributes": {
            "NORMAL": 25,
            "POSITION": 24,
            "TEXCOORD_0": 26
          },
          "indices": 27,
          "material": 1,
          "mode": 4
        }
      ]
    },
    {
      "name": "Object_7",
      "primitives": [
        {
          "attributes": {
            "NORMAL": 29,
            "POSITION": 28,
            "TEXCOORD_0": 30
          },
          "indices": 31,
          "material": 3,
          "mode": 4
        }
      ]
    },
    {
      "name": "Object_8",
      "primitives": [
        {
          "attributes": {
            "NORMAL": 33,
            "POSITION": 32,
            "TEXCOORD_0": 34
          },
          "indices": 35,
          "material": 4,
          "mode": 4
        }
      ]
    },
    {
      "name": "Object_9",
      "primitives": [
        {
          "attributes": {
            "NORMAL": 37,
            "POSITION": 36,
            "TEXCOORD_0": 38
          },
          "indices": 39,
          "material": 7,
          "mode": 4
        }
      ]
    }
  ],
  "nodes": [
    {
      "children": [
        1
      ],
      "matrix": [
        1.0,
        0.0,
        0.0,
        0.0,
        0.0,
        2.220446049250313e-16,
        -1.0,
        0.0,
        0.0,
        1.0,
        2.220446049250313e-16,
        0.0,
        0.0,
        0.0,
        0.0,
        1.0
      ],
      "name": "Sketchfab_model"
    },
    {
      "children": [
        2,
        3,
        4,
        5,
        6,
        7,
        8,
        9,
        10,
        11
      ],
      "name": "1.obj.cleaner.materialmerger.gles"
    },
    {
      "mesh": 0,
      "name": "Object_2"
    },
    {
      "mesh": 1,
      "name": "Object_3"
    },
    {
      "mesh": 2,
      "name": "Object_4"
    },
    {
      "mesh": 3,
      "name": "Object_5"
    },
    {
      "mesh": 4,
      "name": "Object_6"
    },
    {
      "mesh": 5,
      "name": "Object_7"
    },
    {
      "mesh": 6,
      "name": "Object_8"
    },
    {
      "mesh": 7,
      "name": "Object_9"
    },
    {
      "mesh": 8,
      "name": "Object_10"
    },
    {
      "mesh": 9,
      "name": "Object_11"
    }
  ],
  "scene": 0,
  "scenes": [
    {
      "name": "Sketchfab_Scene",
      "nodes": [
        0
      ]
    }
  ]
}
